<?xml version="1.0" standalone="no"?>
<!DOCTYPE svg PUBLIC "-//W3C//DTD SVG 20010904//EN"
 "http://www.w3.org/TR/2001/REC-SVG-20010904/DTD/svg10.dtd">
<svg version="1.0" xmlns="http://www.w3.org/2000/svg"
 width="100.000000pt" height="100.000000pt" viewBox="0 0 100.000000 100.000000"
 preserveAspectRatio="xMidYMid meet">

<g transform="translate(0.000000,100.000000) scale(0.100000,-0.100000)"
fill="#000000" stroke="none">
<path d="M80 780 l0 -140 140 0 140 0 0 140 0 140 -140 0 -140 0 0 -140z m240
0 l0 -100 -100 0 -100 0 0 100 0 100 100 0 100 0 0 -100z"/>
<path d="M160 780 l0 -60 60 0 60 0 0 60 0 60 -60 0 -60 0 0 -60z"/>
<path d="M640 780 l0 -140 140 0 140 0 0 140 0 140 -140 0 -140 0 0 -140z
m240 0 l0 -100 -100 0 -100 0 0 100 0 100 100 0 100 0 0 -100z"/>
<path d="M720 780 l0 -60 60 0 60 0 0 60 0 60 -60 0 -60 0 0 -60z"/>
<path d="M400 820 l0 -60 40 0 c38 0 40 -2 40 -30 0 -28 -2 -30 -40 -30 l-40
0 0 -50 0 -50 -90 0 -90 0 0 -40 0 -40 -40 0 -40 0 0 -60 0 -60 60 0 60 0 0
40 c0 38 2 40 30 40 28 0 30 -2 30 -40 l0 -40 60 0 60 0 0 80 c0 73 2 80 20
80 17 0 20 -7 20 -40 l0 -40 70 0 70 0 0 -30 c0 -29 1 -30 50 -30 49 0 50 -1
50 -30 l0 -30 -80 0 -80 0 0 -40 0 -40 -40 0 -40 0 0 -60 0 -60 60 0 60 0 0
40 0 40 60 0 60 0 0 -80 0 -80 100 0 100 0 0 100 0 100 -80 0 c-73 0 -80 2
-80 20 0 18 7 20 80 20 l80 0 0 100 0 100 -60 0 -60 0 0 -30 c0 -23 -4 -30
-20 -30 -18 0 -20 7 -20 70 l0 70 -120 0 -120 0 0 30 c0 28 2 30 40 30 l40 0
0 70 0 70 -40 0 -40 0 0 40 0 40 -60 0 -60 0 0 -60z"/>
<path d="M80 220 l0 -140 140 0 140 0 0 140 0 140 -140 0 -140 0 0 -140z m240
0 l0 -100 -100 0 -100 0 0 100 0 100 100 0 100 0 0 -100z"/>
<path d="M160 220 l0 -60 60 0 60 0 0 60 0 60 -60 0 -60 0 0 -60z"/>
</g>
</svg>
